<svg width="45" height="45" viewBox="0 0 45 45" fill="none" xmlns="http://www.w3.org/2000/svg">
<rect width="45" height="45" fill="#1E1E1E"/>
<g id="Me Website" filter="url(#filter0_d_0_1)">
<rect width="360" height="800" transform="translate(-20 -90)" fill="#121212"/>
<g id="Profile pic">
<path id="Profile pic " d="M8.6625 33.975C10.575 32.5125 12.7125 31.3594 15.075 30.5156C17.4375 29.6719 19.9125 29.25 22.5 29.25C25.0875 29.25 27.5625 29.6719 29.925 30.5156C32.2875 31.3594 34.425 32.5125 36.3375 33.975C37.65 32.4375 38.6719 30.6937 39.4031 28.7437C40.1344 26.7937 40.5 24.7125 40.5 22.5C40.5 17.5125 38.7469 13.2656 35.2406 9.75937C31.7344 6.25312 27.4875 4.5 22.5 4.5C17.5125 4.5 13.2656 6.25312 9.75937 9.75937C6.25312 13.2656 4.5 17.5125 4.5 22.5C4.5 24.7125 4.86562 26.7937 5.59687 28.7437C6.32812 30.6937 7.35 32.4375 8.6625 33.975ZM22.5 24.75C20.2875 24.75 18.4219 23.9906 16.9031 22.4719C15.3844 20.9531 14.625 19.0875 14.625 16.875C14.625 14.6625 15.3844 12.7969 16.9031 11.2781C18.4219 9.75937 20.2875 9 22.5 9C24.7125 9 26.5781 9.75937 28.0969 11.2781C29.6156 12.7969 30.375 14.6625 30.375 16.875C30.375 19.0875 29.6156 20.9531 28.0969 22.4719C26.5781 23.9906 24.7125 24.75 22.5 24.75ZM22.5 45C19.3875 45 16.4625 44.4094 13.725 43.2281C10.9875 42.0469 8.60625 40.4437 6.58125 38.4188C4.55625 36.3937 2.95312 34.0125 1.77187 31.275C0.590625 28.5375 0 25.6125 0 22.5C0 19.3875 0.590625 16.4625 1.77187 13.725C2.95312 10.9875 4.55625 8.60625 6.58125 6.58125C8.60625 4.55625 10.9875 2.95312 13.725 1.77187C16.4625 0.590625 19.3875 0 22.5 0C25.6125 0 28.5375 0.590625 31.275 1.77187C34.0125 2.95312 36.3937 4.55625 38.4188 6.58125C40.4437 8.60625 42.0469 10.9875 43.2281 13.725C44.4094 16.4625 45 19.3875 45 22.5C45 25.6125 44.4094 28.5375 43.2281 31.275C42.0469 34.0125 40.4437 36.3937 38.4188 38.4188C36.3937 40.4437 34.0125 42.0469 31.275 43.2281C28.5375 44.4094 25.6125 45 22.5 45ZM22.5 40.5C24.4875 40.5 26.3625 40.2094 28.125 39.6281C29.8875 39.0469 31.5 38.2125 32.9625 37.125C31.5 36.0375 29.8875 35.2031 28.125 34.6219C26.3625 34.0406 24.4875 33.75 22.5 33.75C20.5125 33.75 18.6375 34.0406 16.875 34.6219C15.1125 35.2031 13.5 36.0375 12.0375 37.125C13.5 38.2125 15.1125 39.0469 16.875 39.6281C18.6375 40.2094 20.5125 40.5 22.5 40.5ZM22.5 20.25C23.475 20.25 24.2812 19.9312 24.9187 19.2937C25.5562 18.6562 25.875 17.85 25.875 16.875C25.875 15.9 25.5562 15.0938 24.9187 14.4562C24.2812 13.8187 23.475 13.5 22.5 13.5C21.525 13.5 20.7188 13.8187 20.0812 14.4562C19.4438 15.0938 19.125 15.9 19.125 16.875C19.125 17.85 19.4438 18.6562 20.0812 19.2937C20.7188 19.9312 21.525 20.25 22.5 20.25Z" fill="#E8EAED"/>
</g>
</g>
<defs>
<filter id="filter0_d_0_1" x="-24" y="-90" width="368" height="808" filterUnits="userSpaceOnUse" color-interpolation-filters="sRGB">
<feFlood flood-opacity="0" result="BackgroundImageFix"/>
<feColorMatrix in="SourceAlpha" type="matrix" values="0 0 0 0 0 0 0 0 0 0 0 0 0 0 0 0 0 0 127 0" result="hardAlpha"/>
<feOffset dy="4"/>
<feGaussianBlur stdDeviation="2"/>
<feComposite in2="hardAlpha" operator="out"/>
<feColorMatrix type="matrix" values="0 0 0 0 0 0 0 0 0 0 0 0 0 0 0 0 0 0 0.25 0"/>
<feBlend mode="normal" in2="BackgroundImageFix" result="effect1_dropShadow_0_1"/>
<feBlend mode="normal" in="SourceGraphic" in2="effect1_dropShadow_0_1" result="shape"/>
</filter>
</defs>
</svg>
